<?xml version="1.0" encoding="UTF-8"?>
<svg version="1.1" xmlns="http://www.w3.org/2000/svg" width="600" height="700">
<path d="M0 0 C100.32 0 200.64 0 304 0 C304 89.76 304 179.52 304 272 C203.68 272 103.36 272 0 272 C0 182.24 0 92.48 0 0 Z " fill="#E6E7EA" transform="translate(368,416)"/>
<path d="M0 0 C0.33 0 0.66 0 1 0 C2.0285925 2.94863182 2.95889551 5.63828052 3.3125 8.75 C3.539375 9.4925 3.76625 10.235 4 11 C6.39529669 12.32481546 6.39529669 12.32481546 9 13 C9.66 13.33 10.32 13.66 11 14 C11 14.66 11 15.32 11 16 C11.58492785 15.99815641 12.16985569 15.99631283 12.77250862 15.99441338 C27.06438835 15.95007113 41.35626189 15.91706455 55.64819527 15.89637566 C62.55992238 15.88610243 69.47160332 15.87211861 76.38330078 15.84912109 C83.06174219 15.82691046 89.74012589 15.81540866 96.4186058 15.81024551 C98.95809557 15.8065691 101.49758291 15.79939031 104.03705215 15.78853989 C124.99377036 15.7026129 142.78061477 16.8756454 162 26 C162 26.66 162 27.32 162 28 C162.99 28 163.98 28 165 28 C165 28.66 165 29.32 165 30 C166.32 30.33 167.64 30.66 169 31 C169 31.66 169 32.32 169 33 C169.59296875 33.10828125 170.1859375 33.2165625 170.796875 33.328125 C178.06993481 35.54615033 182.58278482 44.42559539 186.203125 50.515625 C189.94868212 57.77874881 192.40585182 65.83046257 193 74 C193.09474609 75.28390625 193.09474609 75.28390625 193.19140625 76.59375 C193.82286681 92.07471868 187.68839049 106.74853489 177.625 118.375 C168.06112826 128.3603305 157.97775306 134.78815205 144 136 C141.7691789 135.99634634 139.54338676 135.93846254 137.31347656 135.87597656 C127.88732124 135.62414751 121.21543036 136.24241276 113.953125 142.8671875 C107.54302752 149.67460508 105.43160311 156.00580423 105.63671875 165.30078125 C106.37670681 172.83592852 107.76548429 181.64822644 112 188 C112 189.32 112 190.64 112 192 C112.66 192 113.32 192 114 192 C114.3403125 192.67804688 114.680625 193.35609375 115.03125 194.0546875 C118.67972725 201.06054009 122.85617112 207.02101071 128 213 C128.67804688 213.81210937 129.35609375 214.62421875 130.0546875 215.4609375 C140.4000897 227.47373053 152.00598395 235.72454878 166 243 C166 243.66 166 244.32 166 245 C167.11375 245.144375 168.2275 245.28875 169.375 245.4375 C173 246 173 246 175 247 C175 247.66 175 248.32 175 249 C177.64 249.33 180.28 249.66 183 250 C183 250.66 183 251.32 183 252 C183.76183594 252.12117187 184.52367187 252.24234375 185.30859375 252.3671875 C191.59527564 253.38749792 197.79770268 254.55279729 204 256 C204 256.33 204 256.66 204 257 C136.68 257 69.36 257 0 257 C0 172.19 0 87.38 0 0 Z " fill="#000000" transform="translate(368,431)"/>
<path d="M0 0 C48.18 0 96.36 0 146 0 C143.525 2.97 143.525 2.97 141 6 C140.28056335 9.15981075 140.28056335 9.15981075 140.41650391 12.5300293 C140.41365387 13.80964035 140.41080383 15.0892514 140.40786743 16.40763855 C140.43012382 17.79650905 140.45303991 19.18536912 140.4765625 20.57421875 C140.48336914 22.02227471 140.48808094 23.47034187 140.49081421 24.91841125 C140.50420663 28.73374841 140.54839381 32.54815089 140.59838867 36.36315918 C140.63342258 39.42316174 140.64681555 42.48306406 140.65880775 45.54323101 C140.67385901 49.26194875 140.69884623 52.98057604 140.7265625 56.69921875 C140.73392866 57.72247033 140.73392866 57.72247033 140.74144363 58.76639366 C140.80708454 66.5603133 141.04856957 74.31925871 141.50439453 82.1003418 C142.12806354 92.9641027 142.18284197 103.81612556 142.203125 114.6953125 C142.20736607 116.25913477 142.20736607 116.25913477 142.21169281 117.85454941 C142.22653546 123.35957834 142.23586183 128.86458201 142.24023438 134.36962891 C142.24573412 139.9983103 142.26983726 145.62675172 142.29820633 151.25535774 C142.31696313 155.64127256 142.32204494 160.02713061 142.32357025 164.41308212 C142.32656185 166.48677778 142.33446914 168.56047331 142.34775543 170.63412857 C142.4813406 193.05990321 140.67889013 211.89695975 124.3984375 228.81640625 C111.58788628 240.47943253 97.14138864 242.92522389 80.40625 242.375 C61.49793276 241.31422484 45.41594516 232.86559804 31 221 C30.27425781 220.42636719 29.54851563 219.85273437 28.80078125 219.26171875 C18.31265097 210.62807123 8.62045206 198.24001066 5 185 C4.875 182.125 4.875 182.125 5 180 C5.85996582 179.97812622 5.85996582 179.97812622 6.73730469 179.95581055 C31.30377567 179.25862731 51.17643423 173.44333221 69.11328125 155.9375 C70.85366842 154.02346001 72.43989545 152.06298089 74 150 C74.56976562 149.27683594 75.13953125 148.55367187 75.7265625 147.80859375 C85.38135755 134.90009023 92.33343101 118.20052469 93 102 C93.03996094 101.18660156 93.07992187 100.37320313 93.12109375 99.53515625 C93.53778088 82.84316 90.02164836 64.85445263 80.8828125 50.62890625 C80 49 80 49 80 46 C79.34 46 78.68 46 78 46 C76.88671875 44.42578125 76.88671875 44.42578125 75.6875 42.3125 C73.47817094 38.64949646 71.14803695 35.93339807 68 33 C67.35160156 32.32066406 66.70320312 31.64132812 66.03515625 30.94140625 C60.78753169 25.47244076 55.42059381 21.02150096 49 17 C48.42894531 16.63874023 47.85789062 16.27748047 47.26953125 15.90527344 C32.33046472 6.5801014 17.43906482 2.57256708 0 1 C0 0.67 0 0.34 0 0 Z " fill="#000000" transform="translate(499,416)"/>
<path d="M0 0 C1.30710937 -0.01417969 2.61421875 -0.02835937 3.9609375 -0.04296875 C8.86824636 0.26569993 11.5290426 1.00021282 14.875 4.625 C17.95764492 9.13887291 17.75650405 13.18356049 17.7207489 18.44906616 C17.71893091 19.30156405 17.71711291 20.15406194 17.71523982 21.0323931 C17.70783721 23.8997253 17.69314414 26.76697381 17.6784668 29.63427734 C17.67159914 31.68569305 17.66514958 33.73711019 17.65908813 35.78852844 C17.64113952 41.3691141 17.61658299 46.9496522 17.59032798 52.5302043 C17.56886262 57.18489631 17.55019106 61.83959801 17.53139621 66.49430144 C17.48685384 77.47409099 17.43655497 88.45384451 17.38305664 99.43359375 C17.32795742 110.76871558 17.28396421 122.10384353 17.24520558 133.43903196 C17.21148278 143.16311768 17.17015975 152.88715168 17.12288028 162.6111809 C17.09474819 168.42231435 17.06969148 174.23342149 17.0522213 180.04459763 C17.03551961 185.50944643 17.00937131 190.97416895 16.97591019 196.43894005 C16.96522916 198.44607336 16.95793228 200.45322793 16.95424461 202.46038628 C16.94868927 205.19771933 16.93099003 207.93471296 16.91020203 210.67196655 C16.91208095 211.86686299 16.91208095 211.86686299 16.91399783 213.08589876 C16.86886319 217.19681075 16.65160253 220.56150816 14.625 224.1875 C10.15363338 227.16841108 5.88558588 226.55579007 0.625 226.5625 C-0.385625 226.58699219 -1.39625 226.61148438 -2.4375 226.63671875 C-3.8915625 226.64251953 -3.8915625 226.64251953 -5.375 226.6484375 C-6.261875 226.65665527 -7.14875 226.66487305 -8.0625 226.67333984 C-10.375 226.1875 -10.375 226.1875 -12.125 224.53369141 C-14.5596775 219.96391587 -14.50298677 214.9367308 -14.53321838 209.85073853 C-14.5430072 208.59610306 -14.55279602 207.34146759 -14.56288147 206.04881287 C-14.56878587 204.67007485 -14.5745963 203.29133643 -14.58032227 201.91259766 C-14.58991285 200.44953645 -14.5999236 198.98647794 -14.61032104 197.52342224 C-14.63734667 193.54809565 -14.65839445 189.57275737 -14.67832303 185.5973897 C-14.70035374 181.39468901 -14.72769269 177.1920226 -14.75437927 172.98934937 C-14.79867323 165.89591035 -14.83940394 158.80245827 -14.87768555 151.70898438 C-14.93088468 141.85358828 -14.99087255 131.99824235 -15.05209088 122.14289331 C-15.40173002 65.51026943 -15.40173002 65.51026943 -15.36669922 47.60449219 C-15.36499568 46.63540861 -15.36329214 45.66632504 -15.36153698 44.66787529 C-15.35277068 40.49354297 -15.33771549 36.31941805 -15.3094635 32.14517212 C-15.27591294 25.40379888 -15.52233138 18.87760093 -16.375 12.1875 C-15.921875 9.6640625 -15.921875 9.6640625 -15.125 7.8125 C-14.87234375 7.18601562 -14.6196875 6.55953125 -14.359375 5.9140625 C-10.96374434 -0.04176587 -6.415582 0.03151072 0 0 Z " fill="#E6E7EA" transform="translate(418.375,461.8125)"/>
<path d="M0 0 C12.73819039 -0.59260118 23.32361533 -0.63924101 35 5 C35.60505371 5.28407715 36.21010742 5.5681543 36.83349609 5.86083984 C55.42913234 14.69197212 72.03181737 28.47412088 83 46 C83.50789062 46.71671875 84.01578125 47.4334375 84.5390625 48.171875 C95.97662838 65.18158836 99.46133304 89.52740186 96.3125 109.5 C95.91062453 111.34147046 95.46932941 113.1745556 95 115 C94.69320312 116.21042969 94.38640625 117.42085937 94.0703125 118.66796875 C90.09159289 133.23507164 82.7656226 147.25496177 72 158 C70.94232422 158.51433594 70.94232422 158.51433594 69.86328125 159.0390625 C67.85084539 159.83649453 67.85084539 159.83649453 67.15234375 161.81640625 C65.41603263 165.10656868 62.54916857 166.85806365 59.5625 168.9375 C58.93214844 169.37916504 58.30179688 169.82083008 57.65234375 170.27587891 C43.42874775 180.01861028 27.99981317 183.55844641 11 184 C13.27503818 195.37519092 19.04957997 202.74481387 27 211 C28.09828125 212.15822266 28.09828125 212.15822266 29.21875 213.33984375 C33.59977136 217.86162573 33.59977136 217.86162573 39 221 C39 221.66 39 222.32 39 223 C39.5775 223.28230469 40.155 223.56460938 40.75 223.85546875 C42.88184376 224.93989622 44.93277503 226.11053397 47 227.3125 C66.83155149 238.24403814 85.68708128 240.15829944 107.45703125 234.34375 C117.62197488 230.97548465 123.36143271 223.70884306 129 215 C129.57105469 214.12085938 130.14210938 213.24171875 130.73046875 212.3359375 C138.28195775 199.69418554 138.42383479 186.24372215 138.21704102 171.99829102 C138.20302446 170.23421745 138.1904105 168.47013227 138.17907715 166.70603943 C138.15197379 162.9367063 138.11527421 159.16763848 138.07086372 155.39846992 C138.00080863 149.43484726 137.95360035 143.47117143 137.90940857 137.50730896 C137.82053831 125.93350747 137.70838131 114.35998827 137.59405518 102.7864151 C137.44961631 88.02945002 137.31710231 73.2723969 137.20286697 58.5151667 C137.15625627 52.58935128 137.09894185 46.66376539 137.03310978 40.73813355 C136.99410782 37.05476828 136.96350519 33.37136675 136.93506622 29.68790627 C136.92012743 27.98310075 136.90165186 26.27832191 136.87933922 24.57359695 C136.84929035 22.24272603 136.8319616 19.91208303 136.81764221 17.58106995 C136.80452783 16.27832406 136.79141344 14.97557817 136.77790165 13.63335514 C137.09592209 8.43078973 138.10206374 4.3469044 141 0 C143.625 -0.1875 143.625 -0.1875 146 0 C145.1857959 0.68940674 144.3715918 1.37881348 143.53271484 2.08911133 C139.23996052 7.29306083 140.36850571 14.19419623 140.4765625 20.57421875 C140.48336914 22.02227471 140.48808094 23.47034187 140.49081421 24.91841125 C140.50420663 28.73374841 140.54839381 32.54815089 140.59838867 36.36315918 C140.63342258 39.42316174 140.64681555 42.48306406 140.65880775 45.54323101 C140.67385901 49.26194875 140.69884623 52.98057604 140.7265625 56.69921875 C140.73392866 57.72247033 140.73392866 57.72247033 140.74144363 58.76639366 C140.80708454 66.5603133 141.04856957 74.31925871 141.50439453 82.1003418 C142.12806354 92.9641027 142.18284197 103.81612556 142.203125 114.6953125 C142.20736607 116.25913477 142.20736607 116.25913477 142.21169281 117.85454941 C142.22653546 123.35957834 142.23586183 128.86458201 142.24023438 134.36962891 C142.24573412 139.9983103 142.26983726 145.62675172 142.29820633 151.25535774 C142.31696313 155.64127256 142.32204494 160.02713061 142.32357025 164.41308212 C142.32656185 166.48677778 142.33446914 168.56047331 142.34775543 170.63412857 C142.4813406 193.05990321 140.67889013 211.89695975 124.3984375 228.81640625 C111.58788628 240.47943253 97.14138864 242.92522389 80.40625 242.375 C61.49793276 241.31422484 45.41594516 232.86559804 31 221 C30.27425781 220.42636719 29.54851563 219.85273437 28.80078125 219.26171875 C18.31265097 210.62807123 8.62045206 198.24001066 5 185 C4.875 182.125 4.875 182.125 5 180 C5.85996582 179.97812622 5.85996582 179.97812622 6.73730469 179.95581055 C31.30377567 179.25862731 51.17643423 173.44333221 69.11328125 155.9375 C70.85366842 154.02346001 72.43989545 152.06298089 74 150 C74.56976562 149.27683594 75.13953125 148.55367187 75.7265625 147.80859375 C85.38135755 134.90009023 92.33343101 118.20052469 93 102 C93.03996094 101.18660156 93.07992187 100.37320313 93.12109375 99.53515625 C93.53778088 82.84316 90.02164836 64.85445263 80.8828125 50.62890625 C80 49 80 49 80 46 C79.34 46 78.68 46 78 46 C76.88671875 44.42578125 76.88671875 44.42578125 75.6875 42.3125 C73.47817094 38.64949646 71.14803695 35.93339807 68 33 C67.35160156 32.32066406 66.70320312 31.64132812 66.03515625 30.94140625 C60.78753169 25.47244076 55.42059381 21.02150096 49 17 C48.42894531 16.63874023 47.85789062 16.27748047 47.26953125 15.90527344 C32.33046472 6.5801014 17.43906482 2.57256708 0 1 C0 0.67 0 0.34 0 0 Z " fill="#2D2D2E" transform="translate(499,416)"/>
<path d="M0 0 C0.33 0 0.66 0 1 0 C2.0285925 2.94863182 2.95889551 5.63828052 3.3125 8.75 C3.539375 9.4925 3.76625 10.235 4 11 C6.39529669 12.32481546 6.39529669 12.32481546 9 13 C9.66 13.33 10.32 13.66 11 14 C11 14.66 11 15.32 11 16 C11.58492785 15.99815641 12.16985569 15.99631283 12.77250862 15.99441338 C27.06438835 15.95007113 41.35626189 15.91706455 55.64819527 15.89637566 C62.55992238 15.88610243 69.47160332 15.87211861 76.38330078 15.84912109 C83.06174219 15.82691046 89.74012589 15.81540866 96.4186058 15.81024551 C98.95809557 15.8065691 101.49758291 15.79939031 104.03705215 15.78853989 C124.99377036 15.7026129 142.78061477 16.8756454 162 26 C162 26.66 162 27.32 162 28 C162.99 28 163.98 28 165 28 C165 28.66 165 29.32 165 30 C166.32 30.33 167.64 30.66 169 31 C169 31.66 169 32.32 169 33 C169.59296875 33.10828125 170.1859375 33.2165625 170.796875 33.328125 C178.06993481 35.54615033 182.58278482 44.42559539 186.203125 50.515625 C189.94868212 57.77874881 192.40585182 65.83046257 193 74 C193.09474609 75.28390625 193.09474609 75.28390625 193.19140625 76.59375 C193.82286681 92.07471868 187.68839049 106.74853489 177.625 118.375 C168.06112826 128.3603305 157.97775306 134.78815205 144 136 C141.7691789 135.99634634 139.54338676 135.93846254 137.31347656 135.87597656 C127.88732124 135.62414751 121.21543036 136.24241276 113.953125 142.8671875 C107.54302752 149.67460508 105.43160311 156.00580423 105.63671875 165.30078125 C106.37670681 172.83592852 107.76548429 181.64822644 112 188 C112 189.32 112 190.64 112 192 C112.66 192 113.32 192 114 192 C114.3403125 192.67804688 114.680625 193.35609375 115.03125 194.0546875 C118.67972725 201.06054009 122.85617112 207.02101071 128 213 C128.67804688 213.81210937 129.35609375 214.62421875 130.0546875 215.4609375 C140.4000897 227.47373053 152.00598395 235.72454878 166 243 C166 243.66 166 244.32 166 245 C167.11375 245.144375 168.2275 245.28875 169.375 245.4375 C173 246 173 246 175 247 C175 247.66 175 248.32 175 249 C177.64 249.33 180.28 249.66 183 250 C183 250.66 183 251.32 183 252 C183.76183594 252.12117187 184.52367187 252.24234375 185.30859375 252.3671875 C191.59527564 253.38749792 197.79770268 254.55279729 204 256 C204 256.33 204 256.66 204 257 C198.06 257 192.12 257 186 257 C186 256.34 186 255.68 186 255 C185.37996094 254.87625 184.75992188 254.7525 184.12109375 254.625 C175.86154161 252.70137796 169.06790887 249.10033064 161.75439453 244.96826172 C160.22324034 244.12320779 158.65868679 243.33924571 157.08984375 242.56640625 C136.99736756 232.59414634 118.45271103 212.03330234 109 192 C108.02449946 188.68155619 107.37257582 185.43682182 107 182 C106.34 182 105.68 182 105 182 C102.07447245 170.04996372 100.0126878 158.35490894 105.83203125 146.86328125 C107.55115917 144.12072601 109.5447465 142.09594811 112 140 C112.78375 139.29875 113.5675 138.5975 114.375 137.875 C120.53016543 133.47845326 125.69708881 132.60408623 133.0625 132.5 C143.9317931 132.12537873 154.81832179 131.37096039 164 125 C164.56847656 124.65324219 165.13695312 124.30648437 165.72265625 123.94921875 C171.0076313 120.56915778 174.45030118 116.11189347 178 111 C178.53882813 110.22527344 179.07765625 109.45054687 179.6328125 108.65234375 C187.55963017 96.40361795 190.72845325 81.88760492 187.9855957 67.51904297 C186.36531773 60.15651291 183.95520746 54.280651 179.48828125 48.1015625 C178 46 178 46 177 43 C176.01 43 175.02 43 174 43 C172.9935725 41.33720673 171.99414593 39.67016516 171 38 C168.93299345 36.67206394 168.93299345 36.67206394 167 36 C167 35.34 167 34.68 167 34 C166.01 34 165.02 34 164 34 C164 33.34 164 32.68 164 32 C162.68 31.67 161.36 31.34 160 31 C160 30.34 160 29.68 160 29 C158.9790625 28.8453125 158.9790625 28.8453125 157.9375 28.6875 C154.37084011 27.85274981 151.33777806 26.50527246 148 25 C148 24.34 148 23.68 148 23 C146.948125 22.87625 145.89625 22.7525 144.8125 22.625 C142.36725074 22.33349163 139.97243138 21.99442137 137.55804443 21.50585938 C126.99493171 19.48609986 116.42750947 19.77158547 105.71424103 19.84967041 C102.14017866 19.8754541 98.56626666 19.8882926 94.99212646 19.89794922 C87.41134958 19.92067125 79.83069819 19.95917836 72.25 20 C63.44518652 20.0473175 54.64044415 20.08803862 45.83553314 20.11187744 C42.32525501 20.12478081 38.81519849 20.14978739 35.30499268 20.17529297 C33.14376006 20.18256099 30.98252544 20.18926408 28.82128906 20.1953125 C27.37161491 20.21081146 27.37161491 20.21081146 25.89265442 20.22662354 C19.96006834 20.22754197 14.74847638 19.48504065 9 18 C9 17.34 9 16.68 9 16 C8.2575 15.731875 7.515 15.46375 6.75 15.1875 C4.0016303 14.00070399 2.1500628 13.07717932 0 11 C-0.390625 8.30078125 -0.390625 8.30078125 -0.25 5.3125 C-0.21390625 4.31863281 -0.1778125 3.32476562 -0.140625 2.30078125 C-0.09421875 1.54152344 -0.0478125 0.78226562 0 0 Z " fill="#252526" transform="translate(368,431)"/>
<path d="M0 0 C0.33 0 0.66 0 1 0 C1 26.07 1 52.14 1 79 C-23.42 79 -47.84 79 -73 79 C-70.31357823 77.20905215 -68.98824041 76.61079637 -65.97265625 75.921875 C-65.18632813 75.73391357 -64.4 75.54595215 -63.58984375 75.35229492 C-62.33880859 75.05415894 -62.33880859 75.05415894 -61.0625 74.75 C-39.22403116 69.23488216 -22.547538 56.24037416 -11 37 C-4.74935644 25.52431736 -0.60393084 13.10529924 0 0 Z " fill="#000000" transform="translate(671,609)"/>
<path d="M0 0 C1.24330078 -0.00386719 1.24330078 -0.00386719 2.51171875 -0.0078125 C7.50668338 0.0715987 11.32636964 0.50480645 15.5 3.5 C19.27925599 8.92810253 20.07953675 12.82229118 20.00120544 19.3497467 C20.00950704 20.65093772 20.00950704 20.65093772 20.01797634 21.97841543 C20.03154313 24.87270562 20.01663529 27.76612753 20.00170898 30.66040039 C20.00549357 32.7403449 20.01099476 34.8202869 20.01808167 36.90022278 C20.03203433 42.54063446 20.02086802 48.18074104 20.00437045 53.82113576 C19.99051331 59.72535898 19.99698072 65.6295646 20.00050354 71.53379822 C20.00320492 81.4474682 19.98973548 91.36101705 19.96655273 101.2746582 C19.93993619 112.73603281 19.93819854 124.19720499 19.9499411 135.65859991 C19.9607197 146.68599987 19.95453161 157.71332661 19.94038582 168.74072075 C19.93462749 173.43317839 19.9347075 178.12558242 19.93945122 182.81804085 C19.94422307 188.34288238 19.93411047 193.8675022 19.91249657 199.39230156 C19.90693168 201.41998929 19.90646066 203.44769834 19.91144943 205.47538757 C19.91740462 208.24291681 19.90489254 211.00976871 19.88768005 213.77723694 C19.8936901 214.57986609 19.89970014 215.38249524 19.90589231 216.20944649 C19.85120349 221.04405813 19.05427408 224.25116598 16.5 228.5 C14.85 228.5 13.2 228.5 11.5 228.5 C12.2115625 227.88125 12.2115625 227.88125 12.9375 227.25 C16.40170735 223.37008776 15.66218956 218.06405409 15.68513489 213.13163757 C15.69677525 211.8537258 15.69677525 211.8537258 15.70865077 210.54999763 C15.73340742 207.69049401 15.75112428 204.83099108 15.76879883 201.97143555 C15.78492486 199.92311315 15.80142358 197.87479366 15.81826782 195.82647705 C15.87166675 189.0966001 15.91458202 182.36667215 15.95703125 175.63671875 C15.97222983 173.32015251 15.98749073 171.00358668 16.00281334 168.68702126 C16.0741507 157.80596625 16.14067636 146.92489463 16.20140249 136.04377526 C16.27169 123.47996687 16.35860073 110.91641548 16.45958501 98.35281724 C16.53654756 88.64321981 16.59806506 78.9335995 16.64799136 69.22382575 C16.67819381 63.42368784 16.71509229 57.62377368 16.76828957 51.82379723 C16.8179499 46.36801693 16.84847203 40.91246198 16.86432266 35.45648193 C16.87344298 33.45496536 16.88945856 31.45346644 16.91290474 29.45206642 C16.94388223 26.71752424 16.9499101 23.98400579 16.94978333 21.24931335 C16.96464352 20.45922353 16.97950371 19.6691337 16.99481422 18.85510176 C16.95657497 13.30768673 15.67720384 10.07060406 12.5 5.5 C8.55804151 3.0497758 4.56344771 3.20119034 0 3.1875 C-1.93359375 3.16236328 -1.93359375 3.16236328 -3.90625 3.13671875 C-7.6904664 3.51925367 -9.53128181 4.17360447 -12.5 6.5 C-15.4987188 11.69777925 -15.59662431 15.38450395 -15.07363892 21.32023621 C-14.50053736 28.56999655 -14.38481508 35.76880585 -14.43310285 43.04305112 C-14.45237444 45.97888133 -14.45933757 48.91471447 -14.46735275 51.85059363 C-14.47167735 53.39997924 -14.47657488 54.94936335 -14.4820329 56.49874538 C-14.51010297 64.82512138 -14.47817851 73.15100073 -14.43994141 81.47729492 C-14.43325129 83.01837311 -14.42657506 84.55945136 -14.41991234 86.10052967 C-14.36026369 99.58648192 -14.28816849 113.07238252 -14.21247292 126.55825329 C-14.15691577 136.48622742 -14.1078982 146.41419173 -14.06685698 156.3422367 C-14.03710959 163.40288878 -13.9999032 170.46347836 -13.95720994 177.52406389 C-13.93208955 181.71395285 -13.91025938 185.90379695 -13.89665604 190.09374046 C-13.88381917 194.00857559 -13.86174792 197.92325069 -13.83261681 201.83799744 C-13.82357394 203.26863184 -13.81785851 204.6992919 -13.81578636 206.12995338 C-13.84932911 216.00766534 -13.84932911 216.00766534 -11.5 225.5 C-11.17 226.49 -10.84 227.48 -10.5 228.5 C-12.15 228.17 -13.8 227.84 -15.5 227.5 C-17.13553994 221.75194739 -17.79780951 216.64139775 -17.79866028 210.68185425 C-17.80656938 209.82987335 -17.81447848 208.97789246 -17.82262725 208.10009396 C-17.8465276 205.26446699 -17.85652546 202.42896939 -17.86645508 199.59326172 C-17.88067421 197.55257609 -17.89570998 195.51189601 -17.91149902 193.47122192 C-17.9515576 187.94257138 -17.97908734 182.41392591 -18.00351167 176.88518667 C-18.02491871 172.26758703 -18.05212563 167.65002858 -18.07922095 163.03245938 C-18.14290358 152.14130244 -18.19609246 141.25012813 -18.24291992 130.35888672 C-18.29142777 119.1229403 -18.35830726 107.88720755 -18.43408471 96.65141475 C-18.49848986 87.00032867 -18.55119628 77.34922642 -18.5945732 67.69802296 C-18.6206116 61.93548356 -18.65117734 56.17305769 -18.69312477 50.4106102 C-18.73206495 44.99500459 -18.75641427 39.57952716 -18.76950836 34.16379929 C-18.7767633 32.17639065 -18.7891883 30.18899317 -18.80715752 28.20165253 C-18.83086755 25.48899709 -18.83590913 22.77692304 -18.83625793 20.06417847 C-18.84752317 19.27779523 -18.8587884 18.49141199 -18.870395 17.68119895 C-18.83764854 11.24686693 -17.20698489 7.37151356 -12.90625 2.65625 C-8.92305499 -0.41228541 -4.84596234 -0.16580275 0 0 Z " fill="#2D2D2E" transform="translate(418.5,459.5)"/>
<path d="M0 0 C4.12410515 3.54864862 6.34132816 6.63647498 7.03515625 12 C7.20576548 17.45949528 6.94937624 21.74587327 3.6875 26.3125 C-0.03022385 29.94760776 -3.17704661 32.32491281 -8.3125 33.3125 C-11.67783803 33.17101432 -14.98085774 32.79973622 -18.3125 32.3125 C-18.3125 31.6525 -18.3125 30.9925 -18.3125 30.3125 C-18.89 30.085625 -19.4675 29.85875 -20.0625 29.625 C-23.85614023 27.4120432 -25.91305388 23.91166918 -28.3125 20.3125 C-28.3125 18.9925 -28.3125 17.6725 -28.3125 16.3125 C-28.9725 16.3125 -29.6325 16.3125 -30.3125 16.3125 C-30.05010976 14.63320245 -29.69216646 12.96922637 -29.3125 11.3125 C-29.17457031 10.68472656 -29.03664063 10.05695313 -28.89453125 9.41015625 C-27.29429183 3.8146882 -24.51530915 1.5005257 -19.6640625 -1.55859375 C-12.76860132 -4.86887329 -6.58365367 -3.35393678 0 0 Z " fill="#E5E6E9" transform="translate(500.3125,498.6875)"/>
<path d="M0 0 C12.73819039 -0.59260118 23.32361533 -0.63924101 35 5 C35.60505371 5.28407715 36.21010742 5.5681543 36.83349609 5.86083984 C55.42913234 14.69197212 72.03181737 28.47412088 83 46 C83.50789062 46.71671875 84.01578125 47.4334375 84.5390625 48.171875 C95.97662838 65.18158836 99.46133304 89.52740186 96.3125 109.5 C95.91062453 111.34147046 95.46932941 113.1745556 95 115 C94.69320312 116.21042969 94.38640625 117.42085937 94.0703125 118.66796875 C90.09159289 133.23507164 82.7656226 147.25496177 72 158 C70.94232422 158.51433594 70.94232422 158.51433594 69.86328125 159.0390625 C67.85084539 159.83649453 67.85084539 159.83649453 67.15234375 161.81640625 C65.41592404 165.10677444 62.54894281 166.85751459 59.5625 168.9375 C58.93504883 169.37843994 58.30759766 169.81937988 57.66113281 170.27368164 C48.80954953 176.35043517 37.94888885 182 27 182 C27.33 181.01 27.66 180.02 28 179 C30.88671875 177.89453125 30.88671875 177.89453125 34.6875 176.8125 C55.92689229 170.26241403 72.59775307 155.58785679 83 136 C88.4470699 125.48811071 92.50991625 113.91116597 93 102 C93.03996094 101.18660156 93.07992187 100.37320313 93.12109375 99.53515625 C93.53778088 82.84316 90.02164836 64.85445263 80.8828125 50.62890625 C80 49 80 49 80 46 C79.34 46 78.68 46 78 46 C76.88671875 44.42578125 76.88671875 44.42578125 75.6875 42.3125 C73.47817094 38.64949646 71.14803695 35.93339807 68 33 C67.35160156 32.32066406 66.70320312 31.64132812 66.03515625 30.94140625 C60.78753169 25.47244076 55.42059381 21.02150096 49 17 C48.42894531 16.63874023 47.85789062 16.27748047 47.26953125 15.90527344 C32.33046472 6.5801014 17.43906482 2.57256708 0 1 C0 0.67 0 0.34 0 0 Z " fill="#262627" transform="translate(499,416)"/>
<path d="M0 0 C0.33 0 0.66 0 1 0 C1 2.31 1 4.62 1 7 C1.66 7 2.32 7 3 7 C3.94107669 15.09552145 4.11966412 23.09616829 4.06689715 31.24129331 C4.04780998 34.22127347 4.04069147 37.20125487 4.03264725 40.1812821 C4.02831476 41.7527217 4.02341528 43.32415984 4.0179671 44.89559597 C3.99023962 53.2563612 4.02159553 61.61661281 4.06005859 69.97729492 C4.06675049 71.51804758 4.0734267 73.05880031 4.08008766 74.59955311 C4.13972687 88.08583091 4.21182968 101.57205701 4.28752708 115.05825329 C4.34308423 124.98622742 4.3921018 134.91419173 4.43314302 144.8422367 C4.46289041 151.90288878 4.5000968 158.96347836 4.54279006 166.02406389 C4.56791045 170.21395285 4.58974062 174.40379695 4.60334396 178.59374046 C4.61618083 182.50857559 4.63825208 186.42325069 4.66738319 190.33799744 C4.67642606 191.76863184 4.68214149 193.1992919 4.68421364 194.62995338 C4.65067089 204.50766534 4.65067089 204.50766534 7 214 C7.33 214.99 7.66 215.98 8 217 C6.35 216.67 4.7 216.34 3 216 C1.35604437 210.23401141 0.70681088 205.12015953 0.7215271 199.14147949 C0.7157347 198.2852652 0.7099423 197.42905091 0.70397437 196.54689074 C0.68706061 193.69723719 0.68410533 190.84774644 0.68115234 187.99804688 C0.67184822 185.94762784 0.66167882 183.89721257 0.65071106 181.84680176 C0.62345172 176.29374157 0.60827366 170.74070671 0.59528303 165.18759727 C0.57963473 159.37930784 0.55284991 153.57106996 0.5272522 147.76281738 C0.48049453 136.76998697 0.44373581 125.77714683 0.41057932 114.7842679 C0.37233668 102.26675537 0.32293211 89.74929466 0.27259517 77.23182583 C0.1693201 51.48792231 0.08004528 25.74398549 0 0 Z " fill="#222222" transform="translate(400,471)"/>
<path d="M0 0 C2.625 -0.1875 2.625 -0.1875 5 0 C3.77869385 1.03411011 3.77869385 1.03411011 2.53271484 2.08911133 C-1.76003948 7.29306083 -0.63149429 14.19419623 -0.5234375 20.57421875 C-0.51663086 22.02227471 -0.51191906 23.47034187 -0.50918579 24.91841125 C-0.49579337 28.73374841 -0.45160619 32.54815089 -0.40161133 36.36315918 C-0.36657742 39.42316174 -0.35318445 42.48306406 -0.34119225 45.54323101 C-0.32614099 49.26194875 -0.30115377 52.98057604 -0.2734375 56.69921875 C-0.26607134 57.72247033 -0.26607134 57.72247033 -0.25855637 58.76639366 C-0.19301396 66.54861736 0.05050108 74.29392612 0.51098633 82.06298828 C1.15082338 93.13951391 1.12622229 104.20134877 1.09765625 115.29296875 C1.09578547 117.4629971 1.0943647 119.63302588 1.09336853 121.80305481 C1.08959524 127.44661679 1.07981087 133.09015202 1.06866455 138.73370361 C1.05833729 144.51973102 1.05384695 150.30576286 1.04882812 156.09179688 C1.03818261 167.39454284 1.02117057 178.69726918 1 190 C0.01 190 -0.98 190 -2 190 C-2.71812125 184.81197333 -3.13374457 179.80246177 -3.17167664 174.55528259 C-3.1812003 173.49888143 -3.1812003 173.49888143 -3.19091636 172.42113882 C-3.21079332 170.08537647 -3.22395936 167.74962778 -3.23706055 165.41381836 C-3.24992854 163.72943332 -3.26318343 162.0450512 -3.27679443 160.360672 C-3.3122569 155.80299411 -3.34156803 151.24529703 -3.36918616 146.68756557 C-3.38673143 143.83778471 -3.40560114 140.98801577 -3.42493629 138.13824654 C-3.49238223 128.19041628 -3.55477817 118.24256875 -3.61254883 108.29467773 C-3.66648802 99.02988466 -3.73160466 89.76521525 -3.80188721 80.50053304 C-3.86180512 72.53603678 -3.91385383 64.57151404 -3.95981437 56.60692507 C-3.98737696 51.85432916 -4.01812296 47.10180638 -4.05682945 42.34928703 C-4.09295011 37.88169559 -4.11926673 33.41415169 -4.1381073 28.946455 C-4.14666569 27.30939516 -4.15869411 25.67234913 -4.17449379 24.03534317 C-4.19555935 21.79607247 -4.20395516 19.55708949 -4.20927429 17.31773376 C-4.2171934 16.06618972 -4.22511251 14.81464567 -4.2332716 13.52517605 C-3.89260293 8.37702663 -2.86828089 4.30242134 0 0 Z " fill="#222223" transform="translate(640,416)"/>
<path d="M0 0 C0.66 0 1.32 0 2 0 C3.86540627 4.70406799 5.36843005 8.94744036 6 14 C6.66 14 7.32 14 8 14 C8.51046875 15.01707031 8.51046875 15.01707031 9.03125 16.0546875 C12.67972725 23.06054009 16.85617112 29.02101071 22 35 C22.67804688 35.81210937 23.35609375 36.62421875 24.0546875 37.4609375 C34.4000897 49.47373053 46.00598395 57.72454878 60 65 C60 65.66 60 66.32 60 67 C61.670625 67.2165625 61.670625 67.2165625 63.375 67.4375 C67 68 67 68 69 69 C69 69.66 69 70.32 69 71 C71.64 71.33 74.28 71.66 77 72 C77 72.66 77 73.32 77 74 C77.76183594 74.12117187 78.52367187 74.24234375 79.30859375 74.3671875 C85.59527564 75.38749792 91.79770268 76.55279729 98 78 C98 78.33 98 78.66 98 79 C92.06 79 86.12 79 80 79 C80 78.34 80 77.68 80 77 C79.06994141 76.814375 79.06994141 76.814375 78.12109375 76.625 C69.86154161 74.70137796 63.06790887 71.10033064 55.75439453 66.96826172 C54.22324034 66.12320779 52.65868679 65.33924571 51.08984375 64.56640625 C30.53858801 54.36644574 10.13140889 32.42492118 1.90234375 11.1640625 C0.65730807 7.21469351 0 4.17948281 0 0 Z " fill="#333335" transform="translate(474,609)"/>
<path d="M0 0 C12.73819039 -0.59260118 23.32361533 -0.63924101 35 5 C35.60505371 5.28407715 36.21010742 5.5681543 36.83349609 5.86083984 C55.40359683 14.67984521 72.07824499 28.46770906 83 46 C83.79664063 47.17949219 83.79664063 47.17949219 84.609375 48.3828125 C89.21385435 55.47188714 93.96473895 64.61567334 92.75 73.3125 C92.37875 74.6428125 92.37875 74.6428125 92 76 C89.60643559 71.58900273 88.06074002 66.82391038 86.38671875 62.10742188 C85.10530095 58.59846173 83.72139292 55.38858484 81.8046875 52.17578125 C80 49 80 49 80 46 C79.34 46 78.68 46 78 46 C76.88671875 44.42578125 76.88671875 44.42578125 75.6875 42.3125 C73.47817094 38.64949646 71.14803695 35.93339807 68 33 C67.35160156 32.32066406 66.70320312 31.64132812 66.03515625 30.94140625 C60.78753169 25.47244076 55.42059381 21.02150096 49 17 C48.42894531 16.63874023 47.85789062 16.27748047 47.26953125 15.90527344 C32.33046472 6.5801014 17.43906482 2.57256708 0 1 C0 0.67 0 0.34 0 0 Z " fill="#353637" transform="translate(499,416)"/>
<path d="M0 0 C5.1730863 3.55015727 7.81317221 6.86202477 9.1875 13 C10.26266612 19.68221525 8.7947466 25.3054742 5.1875 31 C1.24556546 35.89343598 -3.07764334 37.93526782 -9.234375 38.8984375 C-13.29899483 39.05855889 -16.9529738 38.21192852 -20.8125 37 C-20.8125 36.34 -20.8125 35.68 -20.8125 35 C-21.369375 34.79375 -21.92625 34.5875 -22.5 34.375 C-25.80853232 32.40776457 -27.5280628 30.10937286 -29.8125 27 C-29.8125 26.01 -29.8125 25.02 -29.8125 24 C-30.4725 24 -31.1325 24 -31.8125 24 C-33.71401884 18.05775363 -33.15736576 12.51612598 -30.7734375 6.8515625 C-27.83839985 1.19624605 -23.20011825 -1.24879434 -17.41796875 -3.32421875 C-10.67170729 -5.07399871 -5.96012428 -3.39110519 0 0 Z M-24.625 3.625 C-28.6993006 8.04852636 -30.8125 13.00262578 -30.8125 19 C-30.1525 19 -29.4925 19 -28.8125 19 C-28.73 19.70125 -28.6475 20.4025 -28.5625 21.125 C-27.34791143 25.78092286 -24.55397959 29.93878943 -20.8125 33 C-20.1525 33 -19.4925 33 -18.8125 33 C-18.8125 33.66 -18.8125 34.32 -18.8125 35 C-12.25268261 36.11570665 -6.6254959 36.68446849 -0.8125 33 C3.11916413 29.36813596 5.84325411 26.04411727 6.4609375 20.58203125 C6.67783005 14.66753836 6.27086697 10.51231149 2.73828125 5.65625 C-0.6845173 2.00066667 -4.35171513 0.40577357 -9.1875 -0.9375 C-15.01351995 -1.03794862 -19.619889 0.73315809 -24.625 3.625 Z " fill="#272727" transform="translate(500.8125,496)"/>
<path d="M0 0 C0.33 0 0.66 0 1 0 C2.00755012 22.45717261 2.00755012 22.45717261 -4 33 C-4.99241499 34.00752791 -5.9919467 35.00811868 -7 36 C-7.73278059 37.45726555 -8.41581359 38.94003983 -9.0625 40.4375 C-16.84493732 56.27867419 -31.44017396 67.40328744 -47 75 C-48.03060547 75.61681641 -48.03060547 75.61681641 -49.08203125 76.24609375 C-56.49154186 80.34045047 -64.79875398 79.33897228 -73 79 C-70.31357823 77.20905215 -68.98824041 76.61079637 -65.97265625 75.921875 C-65.18632813 75.73391357 -64.4 75.54595215 -63.58984375 75.35229492 C-62.33880859 75.05415894 -62.33880859 75.05415894 -61.0625 74.75 C-39.22403116 69.23488216 -22.547538 56.24037416 -11 37 C-4.74935644 25.52431736 -0.60393084 13.10529924 0 0 Z " fill="#262626" transform="translate(671,609)"/>
<path d="M0 0 C0.66 0 1.32 0 2 0 C6.22794997 13.5294399 6.26477893 28.24128879 3 42 C2.34 42 1.68 42 1 42 C0.34 42.99 -0.32 43.98 -1 45 C-0.855625 43.97261719 -0.71125 42.94523438 -0.5625 41.88671875 C1.36159988 27.74467028 0.87556156 14.21224038 0 0 Z " fill="#2D2D2E" transform="translate(591,489)"/>
<path d="M0 0 C0 0.99 0 1.98 0 3 C-1.35129647 3.48720213 -2.70624316 3.96428184 -4.0625 4.4375 C-4.81660156 4.70433594 -5.57070313 4.97117187 -6.34765625 5.24609375 C-13.41297894 7.25435189 -20.33538646 7.06757291 -27.59179688 6.87304688 C-31.660671 6.81496891 -34.43528822 6.83054534 -38 9 C-38.99 9 -39.98 9 -41 9 C-40.1875 7.0625 -40.1875 7.0625 -39 5 C-35.08576834 3.69525611 -31.27261118 3.76172845 -27.1875 3.625 C-19.75621221 3.31961432 -12.92108591 2.40389971 -5.6875 0.62109375 C-3 0 -3 0 0 0 Z " fill="#303031" transform="translate(528,560)"/>
<path d="M0 0 C0.84691406 -0.020625 1.69382812 -0.04125 2.56640625 -0.0625 C8.66924644 -0.10046479 13.12670241 0.71132491 17.6875 5.125 C19.06623864 7.88247729 18.63308373 9.35990779 17.75 12.25 C16.220957 10.211276 14.7126166 8.19311221 13.3125 6.0625 C11.38278076 3.82402568 10.63999283 3.7412034 7.75 3.25 C5.27360939 3.10612032 2.79289142 3.0294992 0.3125 3 C-0.98558594 2.97421875 -2.28367187 2.9484375 -3.62109375 2.921875 C-7.45306935 3.26836149 -9.28338638 3.84302228 -12.25 6.25 C-13.39335193 8.11218979 -13.39335193 8.11218979 -13.9375 10.1875 C-14.83167455 13.03459565 -15.859153 15.60443145 -17.25 18.25 C-18.16473744 9.83102767 -18.16473744 9.83102767 -15.984375 6.0625 C-10.93621578 0.18114945 -7.4913703 0.04479145 0 0 Z " fill="#282828" transform="translate(418.25,459.75)"/>
<path d="M0 0 C0.66 0 1.32 0 2 0 C2.4924301 7.75577404 1.50519709 13.64872086 -3.47265625 19.828125 C-7.93684604 24.17622475 -12.82214584 25.75662999 -19 26 C-22.10148047 25.60543296 -25.01920819 24.93599743 -28 24 C-24.80815156 21.87210104 -24.37584875 21.81653433 -20.8125 22.0625 C-15.38288203 22.15961512 -10.555669 21.32102942 -6.42578125 17.5703125 C-4.32279913 15.14796633 -3.016444 13.049332 -2 10 C-1.34 10 -0.68 10 0 10 C0 6.7 0 3.4 0 0 Z " fill="#262626" transform="translate(508,509)"/>
<path d="M0 0 C3.96119065 2.37986653 7.30510213 4.68928582 10.3203125 8.20703125 C11.53868451 13.68970529 10.75178931 19.04811112 10.0703125 24.58203125 C9.7403125 24.58203125 9.4103125 24.58203125 9.0703125 24.58203125 C9.04453125 23.86917969 9.01875 23.15632812 8.9921875 22.421875 C8.61388554 16.03373051 8.03157591 11.68997618 4.0703125 6.58203125 C-0.17920436 3.13391211 -4.45925521 1.87509012 -9.9296875 1.58203125 C-12.27229393 1.84232085 -14.6114446 2.15623153 -16.9296875 2.58203125 C-16.1171875 0.64453125 -16.1171875 0.64453125 -14.9296875 -1.41796875 C-9.55026511 -3.21110955 -4.99435561 -2.41726811 0 0 Z " fill="#343435" transform="translate(497.9296875,494.41796875)"/>
<path d="M0 0 C0.33 0 0.66 0 1 0 C1.90340514 23.87074357 1.90340514 23.87074357 -3 30 C-5.140625 30.73828125 -5.140625 30.73828125 -7 31 C-5.5552383 25.61032158 -4.0890187 20.24842494 -2.375 14.9375 C-0.86198061 10.00236344 -0.31704653 5.13834028 0 0 Z " fill="#2E2E2E" transform="translate(671,609)"/>
<path d="M0 0 C3.40509244 3.40509244 2.84893887 8.23330722 3.25 12.875 C3.353125 13.88175781 3.45625 14.88851562 3.5625 15.92578125 C3.65015625 16.89644531 3.7378125 17.86710938 3.828125 18.8671875 C3.9096582 19.75519043 3.99119141 20.64319336 4.07519531 21.55810547 C3.9927772 24.23455339 3.36824952 25.72685502 2 28 C-0.38699503 18.24973215 -1.40704393 10.05273557 0 0 Z " fill="#202021" transform="translate(471,585)"/>
<path d="M0 0 C0.99 0 1.98 0 3 0 C3.391875 1.03125 3.78375 2.0625 4.1875 3.125 C6.39307046 8.28875263 9.93904375 12.15277829 14 16 C13.01 16.33 12.02 16.66 11 17 C8.9921875 15.7421875 8.9921875 15.7421875 6.875 13.875 C5.81925781 12.97394531 5.81925781 12.97394531 4.7421875 12.0546875 C2.735967 9.68860682 2.34774258 8.04538201 2 5 C1.34 5 0.68 5 0 5 C0 3.35 0 1.7 0 0 Z " fill="#313132" transform="translate(469,515)"/>
<path d="M0 0 C1.5 2.6875 1.5 2.6875 1.25 5.5 C1.0025 6.221875 0.755 6.94375 0.5 7.6875 C-1.029043 5.648776 -2.5373834 3.63061221 -3.9375 1.5 C-6.52965662 -1.50690167 -9.28893738 -1.29431269 -13.171875 -1.62890625 C-14.53101915 -1.71467748 -15.89041007 -1.79661154 -17.25 -1.875 C-17.94738281 -1.91818359 -18.64476562 -1.96136719 -19.36328125 -2.00585938 C-21.07531922 -2.11139596 -22.78763561 -2.2123991 -24.5 -2.3125 C-24.5 -2.6425 -24.5 -2.9725 -24.5 -3.3125 C-22.14640498 -3.53665191 -19.79351589 -3.74209058 -17.4375 -3.9375 C-16.12652344 -4.05351562 -14.81554687 -4.16953125 -13.46484375 -4.2890625 C-8.0744557 -4.32092686 -4.01485962 -3.71374514 0 0 Z " fill="#3C3C3E" transform="translate(435.5,464.3125)"/>
<path d="M0 0 C0.33 0 0.66 0 1 0 C2.0285925 2.94863182 2.95889551 5.63828052 3.3125 8.75 C3.539375 9.4925 3.76625 10.235 4 11 C6.37625345 12.18391223 6.37625345 12.18391223 9 13 C10.8125 14.625 10.8125 14.625 12 16 C11.01 16.33 10.02 16.66 9 17 C6 15.1875 6 15.1875 3 13 C2.01 12.34 1.02 11.68 0 11 C-0.29296875 8.3984375 -0.29296875 8.3984375 -0.1875 5.375 C-0.16042969 4.37210937 -0.13335937 3.36921875 -0.10546875 2.3359375 C-0.07066406 1.56507813 -0.03585937 0.79421875 0 0 Z " fill="#313133" transform="translate(368,431)"/>
<path d="M0 0 C3.3 0 6.6 0 10 0 C8.88625 0.7425 8.88625 0.7425 7.75 1.5 C4.34137326 4.59875158 2.81273937 7.82766134 1 12 C0.67 12 0.34 12 0 12 C0 8.04 0 4.08 0 0 Z " fill="#232324" transform="translate(368,416)"/>
<path d="M0 0 C1.17949219 0.20367188 2.35898437 0.40734375 3.57421875 0.6171875 C4.47785156 0.78476562 5.38148438 0.95234375 6.3125 1.125 C6.3125 1.455 6.3125 1.785 6.3125 2.125 C0.46909442 3.36827778 -3.95446495 2.69800962 -9.6875 1.125 C-5.84419804 -1.43720131 -4.45559323 -0.79406612 0 0 Z " fill="#1E1E1E" transform="translate(489.6875,531.875)"/>
<path d="M0 0 C5.94 0.99 5.94 0.99 12 2 C12 2.33 12 2.66 12 3 C8.04 3 4.08 3 0 3 C0 2.01 0 1.02 0 0 Z " fill="#1E1E1E" transform="translate(560,685)"/>
<path d="M0 0 C1.65 0 3.3 0 5 0 C3.35 1.98 1.7 3.96 0 6 C-0.66 5.67 -1.32 5.34 -2 5 C-1.34 3.35 -0.68 1.7 0 0 Z " fill="#2C2C2D" transform="translate(640,416)"/>
<path d="M0 0 C2 3 2 3 1.625 5.1875 C1.41875 5.785625 1.2125 6.38375 1 7 C-0.65 7 -2.3 7 -4 7 C-3.525625 6.5875 -3.05125 6.175 -2.5625 5.75 C-0.83733482 3.817815 -0.43415125 2.51807725 0 0 Z " fill="#2D2D2E" transform="translate(434,681)"/>
</svg>
